<?xml version="1.0" standalone="no"?><svg xmlns="http://www.w3.org/2000/svg" viewBox="0 0 1440 320"><path fill="#0099ff" fill-opacity="10" d="M0,64L13.3,80C26.7,96,53,128,80,154.7C106.7,181,133,203,160,218.7C186.7,235,213,245,240,213.3C266.7,181,293,107,320,69.3C346.7,32,373,32,400,32C426.7,32,453,32,480,37.3C506.7,43,533,53,560,80C586.7,107,613,149,640,165.3C666.7,181,693,171,720,186.7C746.7,203,773,245,800,272C826.7,299,853,309,880,293.3C906.7,277,933,235,960,218.7C986.7,203,1013,213,1040,202.7C1066.7,192,1093,160,1120,133.3C1146.7,107,1173,85,1200,117.3C1226.7,149,1253,235,1280,240C1306.7,245,1333,171,1360,154.7C1386.7,139,1413,181,1427,202.7L1440,224L1440,320L1426.7,320C1413.3,320,1387,320,1360,320C1333.3,320,1307,320,1280,320C1253.3,320,1227,320,1200,320C1173.3,320,1147,320,1120,320C1093.3,320,1067,320,1040,320C1013.3,320,987,320,960,320C933.3,320,907,320,880,320C853.3,320,827,320,800,320C773.3,320,747,320,720,320C693.3,320,667,320,640,320C613.3,320,587,320,560,320C533.3,320,507,320,480,320C453.3,320,427,320,400,320C373.3,320,347,320,320,320C293.3,320,267,320,240,320C213.3,320,187,320,160,320C133.3,320,107,320,80,320C53.3,320,27,320,13,320L0,320Z"></path></svg>